<?xml version="1.0" encoding="UTF-8"?> <svg xmlns="http://www.w3.org/2000/svg" width="5723" height="1526" viewBox="0 0 5723 1526" fill="none"> <g clip-path="url(#clip0_1_1465)"> <path d="M2408.75 570.585C2333.58 570.585 2277.36 598.4 2249.55 644.408H2243.53V584.718H2106.13V1216.95H2243.53V1016.53H2249.55C2277.21 1062.54 2333.58 1090.35 2408.75 1090.35C2549.76 1090.35 2661.6 975.183 2661.6 830.394C2661.6 685.755 2549.76 570.585 2408.75 570.585ZM2380.94 965.259C2304.27 965.259 2243.53 905.57 2243.53 830.394C2243.53 754.466 2304.27 695.528 2380.94 695.528C2459.86 695.528 2519.84 754.466 2519.84 830.394C2519.84 906.321 2459.11 965.259 2380.94 965.259Z" fill="#3B175C"></path> <path d="M5481.98 607.692C5403.35 607.692 5341.87 637.462 5304.44 689.183H5298.27C5308.49 595.664 5361.41 550.258 5475.36 534.02L5674.85 505.152V378.706L5462.13 408.927C5265.65 436.291 5171.39 540.334 5171.39 727.823C5171.39 863.441 5180.11 906.291 5204.32 957.561C5242.35 1039.8 5336.61 1090.32 5450.56 1090.32C5604.05 1090.32 5722.51 981.467 5722.51 838.934C5722.36 701.812 5624.49 607.692 5481.98 607.692ZM5449.05 964.628C5370.88 964.628 5313.15 911.253 5313.15 838.934C5313.15 765.862 5370.13 712.487 5449.05 712.487C5526.47 712.487 5583.6 765.862 5583.6 838.934C5583.6 911.253 5525.72 964.628 5449.05 964.628Z" fill="#3B175C"></path> <path d="M1962.07 436.242L1807.38 748.072L1596.61 436.242H1432.3L1738.23 887.599L1729.81 904.739C1716.58 932.103 1699.14 946.838 1658.85 946.838H1550.61V1076.74H1674.18C1768.44 1076.74 1806.48 1052.84 1845.86 974.202L2116.31 436.092H1962.07V436.242Z" fill="#3B175C"></path> <path d="M3455.31 585.29L3431.85 890.805C3428.25 938.617 3412.16 956.058 3374.13 956.058H3340.45V1080.4H3422.38C3514.54 1080.4 3555.43 1038.3 3562.04 950.495L3580.08 713.089H3749.05V1076.19H3887.96V585.29H3455.31Z" fill="#3B175C"></path> <path d="M4246.11 696.974C4302.33 696.974 4346.98 728.548 4368.18 770.797L4491 724.488C4456.72 631.12 4359.46 570.678 4243.25 570.678C4087.51 570.678 3969.95 682.991 3969.95 830.637C3969.95 978.132 4087.66 1090.6 4243.25 1090.6C4359.46 1090.6 4456.72 1030.15 4491 936.785L4368.18 890.477C4346.98 932.576 4302.33 964.3 4246.11 964.3C4167.94 964.3 4111.56 908.82 4111.56 830.787C4111.56 752.454 4167.94 696.974 4246.11 696.974Z" fill="#3B175C"></path> <path d="M4924.9 584.544L4711.58 896.675V584.544H4574.18V1076.2H4726.17L4938.13 766.32V1076.2H5075.53V584.544H4924.9Z" fill="#3B175C"></path> <path d="M3133.56 644.21H3127.54C3099.88 598.202 3043.51 570.387 2968.34 570.387C2827.33 570.387 2715.49 685.557 2715.49 830.346C2715.49 974.985 2827.33 1090.3 2968.34 1090.3C3043.51 1090.3 3099.73 1062.49 3127.54 1016.48H3133.56V1076.17H3270.96V584.52H3133.56V644.21ZM2996.3 965.212C2918.13 965.212 2857.4 906.274 2857.4 830.346C2857.4 754.418 2917.38 695.48 2996.3 695.48C3072.97 695.48 3133.71 754.418 3133.71 830.346C3133.56 905.522 3072.97 965.212 2996.3 965.212Z" fill="#3B175C"></path> <path d="M1045.03 770.786C1045.03 592.769 948.064 436.252 802.393 347.093L804.348 467.976C890.938 542.401 945.809 650.654 945.809 770.786C945.809 825.664 934.083 877.986 913.488 925.798C850.8 866.259 806.152 796.195 778.341 713.501C744.817 613.367 736.999 503.76 735.797 369.797L735.947 312.212C705.881 299.281 674.462 289.057 642.291 281.841L642.441 369.646C645.598 832.129 725.725 1022.78 844.937 1166.06L845.087 1165.91L844.937 1166.06C966.856 1074.05 1045.03 931.211 1045.03 770.786C1045.03 770.936 1045.03 770.936 1045.03 770.786Z" fill="#3B175C"></path> <path d="M402.737 369.739L402.887 281.934C370.716 289.15 339.297 299.374 309.231 312.305L309.381 369.89C308.028 503.703 300.361 613.46 266.837 713.594C239.177 796.288 194.378 866.202 131.69 925.891C111.095 878.079 99.3688 825.757 99.3688 770.878C99.3688 650.597 154.089 542.494 240.83 468.069L242.785 347.186C96.9635 436.195 0 592.711 0 770.728V770.878C0 931.304 78.3224 1074.14 200.091 1166.15L199.94 1166L200.091 1166.15C319.604 1023.02 399.58 832.222 402.737 369.739Z" fill="#3B175C"></path> <path d="M569.414 192.705C552.426 191.351 537.093 190.75 522.661 190.75C508.229 190.75 492.895 191.351 475.757 192.705V296.598C475.757 751.864 458.169 949.727 390.069 1257.05C476.359 1278.85 568.061 1278.85 654.501 1257.2C586.852 952.133 569.414 754.27 569.414 296.598V192.705V192.705Z" fill="#3B175C"></path> </g> <defs> <clipPath id="clip0_1_1465"> <rect width="5722.5" height="1526" fill="white"></rect> </clipPath> </defs> </svg> 